<?xml version="1.0" encoding="UTF-8"?>
<svg id="Layer_1" data-name="Layer 1" xmlns="http://www.w3.org/2000/svg" viewBox="0 0 57.89 57.89">
  <defs>
    <style>
      .cls-1, .cls-2 {
        stroke-width: 0px;
      }

      .cls-3 {
        stroke-width: 3px;
      }

      .cls-3, .cls-4 {
        fill: none;
        stroke: #000;
        stroke-miterlimit: 10;
      }

      .cls-4 {
        stroke-width: 2px;
      }

      .cls-2 {
        fill: #231f20;
      }
    </style>
  </defs>
  <path class="cls-3" d="m51.39,56.39H6.5c-2.76,0-5-2.24-5-5V6.5C1.5,3.74,3.74,1.5,6.5,1.5h44.89c2.76,0,5,2.24,5,5v44.88c0,2.76-2.24,5-5,5h0Z"/>
  <g>
    <path class="cls-1" d="m10.32,38.81V15.77h-3.1v-.58h7.09l11.16,18.25V15.77h-3.1v-.58h6.77v.58h-3.1v23.9h-1.22l-13.93-22.86v22h3.1v.58h-6.77v-.58s3.1,0,3.1,0Z"/>
    <path class="cls-1" d="m48.37,22.95c-.29.61-.68,1.14-1.17,1.58-.49.44-1.08.8-1.76,1.08-.68.28-1.42.49-2.21.63.65.07,1.35.26,2.11.56.76.3,1.45.73,2.07,1.28.62.55,1.15,1.22,1.57,2.02s.63,1.72.63,2.77c0,2.04-.69,3.64-2.07,4.79s-3.32,1.73-5.81,1.73h-10.76v-.58h3.1V15.77h-3.1v-.58h10.48c.96,0,1.88.13,2.77.38s1.67.61,2.36,1.08c.68.47,1.23,1.06,1.64,1.76.41.71.61,1.51.61,2.39,0,.82-.14,1.53-.43,2.14h-.03Zm-6.95,3.08c.58,0,1.11-.08,1.6-.23.49-.16.91-.42,1.24-.79s.6-.88.79-1.51c.19-.64.29-1.43.29-2.39v-.58c0-.89-.1-1.64-.29-2.25-.19-.61-.46-1.1-.79-1.48s-.74-.64-1.22-.79c-.48-.16-1.02-.23-1.62-.23h-3.89v10.26h3.89Zm0,12.78c1.73,0,2.93-.48,3.6-1.44s1.01-2.32,1.01-4.07v-.86c0-1.87-.35-3.31-1.06-4.32-.71-1.01-1.89-1.51-3.55-1.51h-3.89v12.2h3.89Z"/>
  </g>
  <g>
    <path class="cls-2" d="m12.88,49.09c-.14.09-.21.22-.21.39,0,.26.19.39.57.39h1.45c.32,0,.59.09.79.27s.3.45.3.83c0,.25-.04.46-.14.65-.09.19-.21.34-.37.47s-.34.23-.55.29c-.21.07-.44.1-.68.1s-.46-.02-.66-.06-.37-.1-.51-.18-.25-.18-.33-.31-.12-.27-.12-.44c0-.23.07-.43.21-.59s.33-.29.58-.38c-.09,0-.18-.04-.27-.08s-.18-.09-.25-.17c-.07-.07-.13-.16-.18-.26-.04-.1-.07-.22-.07-.36,0-.21.06-.38.18-.51.12-.13.32-.24.61-.32-.19-.1-.36-.24-.52-.43-.15-.19-.23-.42-.23-.68,0-.16.03-.31.09-.46.06-.15.15-.28.27-.4s.27-.21.45-.28c.18-.07.39-.1.63-.1.19,0,.37.02.54.07s.29.1.38.18c.23-.26.46-.39.68-.39.09,0,.17.02.23.07.07.05.1.12.1.21,0,.06-.02.12-.06.18s-.11.09-.21.09c-.09,0-.16-.02-.21-.07s-.08-.11-.08-.18c0-.05.01-.1.04-.14-.12.05-.25.16-.39.32.28.25.42.56.42.92,0,.11-.02.23-.07.38-.05.14-.13.28-.24.41s-.26.24-.45.33-.41.13-.68.13c-.11,0-.21,0-.3-.02s-.16-.03-.21-.05c-.22.06-.39.13-.53.22v-.04Zm2.51,1.94c-.04-.1-.1-.18-.18-.26-.08-.08-.17-.14-.28-.18s-.24-.07-.38-.07h-1.14s-.1.02-.17.06c-.06.04-.12.09-.18.16s-.1.15-.14.25-.06.21-.06.32.02.22.05.35c.04.12.1.23.19.33.09.1.21.18.37.25s.36.1.6.1c.15,0,.31-.02.47-.05s.31-.09.45-.18c.13-.08.24-.18.33-.31s.13-.28.13-.46c0-.11-.02-.21-.06-.31Zm-1.97-2.47c.08.16.25.24.5.24s.42-.08.5-.24.13-.4.13-.7v-.31c0-.37-.05-.62-.15-.75s-.26-.2-.48-.2-.38.07-.48.2-.15.39-.15.75v.31c0,.31.04.54.13.7Z"/>
    <path class="cls-2" d="m17.31,46.51c.17-.04.35-.06.54-.06.4,0,.69.07.88.21.19.14.29.34.29.6v2.18c0,.17.01.31.04.41s.1.15.22.15c.08,0,.16-.03.23-.09s.13-.15.18-.25c.02-.05.04-.07.06-.07s.03.02.03.04c0,.04-.01.09-.04.16s-.07.14-.14.2-.15.12-.26.17-.24.07-.39.07c-.24,0-.41-.05-.5-.16-.1-.1-.15-.22-.17-.35-.04.05-.08.11-.14.17-.06.06-.13.11-.22.16s-.19.09-.3.13-.24.05-.37.05-.26-.02-.37-.04c-.12-.03-.22-.08-.31-.14-.09-.06-.16-.15-.21-.25-.05-.11-.08-.23-.08-.37,0-.2.05-.38.15-.54s.24-.29.42-.4.39-.19.63-.25.5-.08.77-.08v-1.06c0-.2-.05-.34-.16-.41s-.26-.11-.44-.11c-.07,0-.13,0-.2.02-.07,0-.13.03-.18.04-.05.02-.1.04-.14.06-.04.02-.05.05-.05.07s0,.03.03.04c.02,0,.04.03.07.06.04.04.07.09.09.13.01.04.02.09.02.13,0,.09-.03.17-.09.23s-.15.09-.25.09-.18-.03-.24-.1-.09-.15-.09-.23c0-.17.1-.32.29-.45.11-.07.25-.12.42-.16h-.02Zm.46,1.79c-.15.03-.29.07-.41.14-.12.07-.21.16-.28.28-.07.12-.11.28-.11.48,0,.25.05.44.14.58.1.14.24.22.42.22.05,0,.12,0,.2-.04.08-.03.16-.07.23-.12s.14-.11.19-.17c.05-.06.08-.12.08-.17v-1.25c-.16,0-.32.03-.47.06h.01Z"/>
    <path class="cls-2" d="m21.49,46.9c.06-.07.14-.13.23-.19.09-.06.19-.11.31-.15.11-.04.24-.06.39-.06.1,0,.2,0,.3.04.1.02.19.06.26.11.08.05.14.12.18.2.05.08.07.18.07.3,0,.14-.04.26-.14.34-.09.08-.19.12-.31.12-.14,0-.25-.04-.33-.12s-.13-.18-.13-.31c0-.12.02-.21.07-.27s.09-.1.13-.12c.03,0,.04-.03.04-.06,0-.04-.03-.06-.08-.07h-.18c-.11,0-.22.03-.33.08-.11.05-.22.12-.31.2s-.17.18-.23.28-.09.2-.09.3v2.47h.63v.14h-2.03v-.14h.63v-3.24h-.63v-.14h1.4v.52c.03-.06.07-.12.13-.19l.02-.03h0Z"/>
    <path class="cls-2" d="m25.66,44.05h1.46v5.9h.68v.14h-1.46v-.47c-.11.16-.24.29-.4.41s-.36.18-.6.18c-.18,0-.37-.05-.57-.15-.2-.1-.38-.24-.54-.41s-.3-.38-.4-.61-.16-.47-.16-.72c0-.23.05-.46.14-.69.1-.22.22-.43.38-.6s.34-.32.54-.43.41-.16.63-.16c.43,0,.76.16.98.49v-2.74h-.68s0-.14,0-.14Zm-1.05,4.49c0,.29.02.54.05.74.03.2.08.36.14.47s.14.2.24.25.21.08.33.08c.2,0,.38-.06.54-.19.16-.13.3-.3.44-.52v-2.11c-.04-.07-.09-.15-.15-.23-.06-.08-.12-.15-.2-.22s-.16-.12-.26-.17c-.1-.04-.21-.06-.34-.06-.29,0-.49.11-.61.34s-.18.62-.18,1.17v.44h0Z"/>
    <path class="cls-2" d="m31.01,48.03h-2.17v.92c0,.4.07.68.22.86s.34.27.58.27c.2,0,.37-.03.52-.09s.28-.14.4-.23c.12-.1.22-.21.3-.33s.15-.25.2-.38c.02-.06.05-.09.08-.09.04,0,.05.02.05.06s0,.08-.03.13c-.05.14-.13.28-.22.41s-.2.25-.33.35-.28.18-.45.23c-.17.06-.35.09-.56.09-.25,0-.48-.05-.7-.16-.21-.11-.39-.25-.54-.42-.15-.17-.27-.37-.35-.59s-.13-.45-.13-.68.04-.46.13-.69c.08-.23.2-.43.35-.61s.33-.33.54-.44c.21-.11.43-.17.67-.17.29,0,.53.06.73.18s.36.25.48.41c.12.16.21.32.27.49.06.17.09.3.09.4,0,.08-.05.12-.14.12v-.04h.01Zm-.84-.14c.09,0,.13-.14.13-.42,0-.11,0-.21-.03-.31s-.05-.2-.11-.28c-.05-.08-.13-.15-.22-.2s-.21-.08-.36-.08c-.09,0-.18,0-.27.04-.09.02-.17.07-.24.14s-.13.16-.18.28-.07.28-.07.48v.36h1.35Z"/>
    <path class="cls-2" d="m33.71,46.73c.21-.15.48-.23.81-.23.28,0,.5.06.68.18s.27.34.27.65v2.63h.63v.14h-2.03v-.14h.63v-2.56c0-.23-.04-.41-.12-.51-.08-.11-.21-.16-.38-.16-.12,0-.24.03-.35.1-.11.07-.21.15-.3.25s-.16.21-.21.33c-.05.12-.08.23-.08.33v2.23h.63v.14h-2.03v-.14h.63v-3.24h-.63v-.14h1.4v.68c.1-.2.26-.38.46-.53h-.01Z"/>
    <path class="cls-2" d="m37.63,50c-.09.09-.21.14-.35.14s-.25-.05-.35-.14-.14-.21-.14-.35.05-.25.14-.35.21-.14.35-.14.25.05.35.14c.09.09.14.21.14.35s-.05.25-.14.35Z"/>
    <path class="cls-2" d="m39.97,46.9c.06-.07.14-.13.23-.19.09-.06.19-.11.31-.15s.24-.06.39-.06c.1,0,.2,0,.3.04.1.02.19.06.26.11.08.05.14.12.18.2.05.08.07.18.07.3,0,.14-.04.26-.13.34s-.2.12-.32.12c-.14,0-.25-.04-.33-.12s-.13-.18-.13-.31c0-.12.02-.21.07-.27s.09-.1.13-.12c.03,0,.04-.03.04-.06,0-.04-.03-.06-.08-.07h-.18c-.11,0-.22.03-.33.08s-.22.12-.31.2-.17.18-.22.28c-.06.1-.09.2-.09.3v2.47h.63v.14h-2.03v-.14h.63v-3.24h-.63v-.14h1.4v.52c.03-.06.08-.12.13-.19v-.03h.01Z"/>
    <path class="cls-2" d="m44.45,50c-.24.13-.51.2-.83.2-.12,0-.24,0-.35-.04s-.21-.08-.29-.15-.15-.17-.2-.3-.07-.28-.07-.48v-2.51h-.63v-.14h1.4v2.72c0,.23.03.39.09.5.06.1.2.15.41.15.13,0,.26-.03.39-.1s.24-.15.33-.25.17-.21.23-.32.08-.22.08-.32v-2.24h-.63v-.14h1.4v3.38h.63v.14h-1.4v-.67c-.14.25-.33.44-.56.57Z"/>
  </g>
  <line class="cls-4" x1="1.02" y1="11.12" x2="55.91" y2="11.12"/>
  <circle class="cls-1" cx="6.25" cy="6.86" r="1.29"/>
  <circle class="cls-1" cx="10.53" cy="6.86" r="1.29"/>
  <circle class="cls-1" cx="14.84" cy="6.86" r="1.29"/>
</svg>