<?xml version="1.0" encoding="utf-8"?>
<!-- Generator: Adobe Illustrator 26.0.2, SVG Export Plug-In . SVG Version: 6.00 Build 0)  -->
<svg version="1.1" id="Layer_1" xmlns="http://www.w3.org/2000/svg" xmlns:xlink="http://www.w3.org/1999/xlink" x="0px" y="0px"
	 viewBox="0 0 288 288" style="enable-background:new 0 0 288 288;" xml:space="preserve">
<path d="M20,0C8.9,0,0,8.9,0,20c0,5.4,2.2,10.6,6,14.3L115.7,144L6,253.7c-7.8,7.8-7.8,20.5,0,28.3s20.5,7.8,28.3,0h0L144,172.2
	l109.7,109.7c7.6,8,20.3,8.2,28.2,0.6c8-7.6,8.2-20.3,0.6-28.2c-0.2-0.2-0.4-0.4-0.6-0.6L172.2,144L281.7,34.4
	c8-7.6,8.2-20.3,0.6-28.2c-7.6-8-20.3-8.2-28.2-0.6c-0.2,0.2-0.4,0.4-0.6,0.6L144,115.7L34.3,6.1C30.5,2.2,25.4,0,20,0z"/>
</svg>
