<?xml version="1.0" encoding="utf-8"?>
<!-- Generator: Adobe Illustrator 26.0.2, SVG Export Plug-In . SVG Version: 6.00 Build 0)  -->
<svg version="1.1" id="Layer_1" xmlns="http://www.w3.org/2000/svg" xmlns:xlink="http://www.w3.org/1999/xlink" x="0px" y="0px"
	 viewBox="0 0 500 500" style="enable-background:new 0 0 500 500;" xml:space="preserve">
<path  d="M489,238.6c0,0,0.1,0,0.1,0c3,0,5.9-1.3,8-3.5c2.1-2.3,3.1-5.3,2.9-8.4C489,106.3,393.6,11,273,0c-3.1-0.2-6.1,0.8-8.4,2.9
	c-2.3,2.1-3.5,5-3.5,8.1C263,171,284.2,236.3,489,238.6z M489,260.7c-204.8,2.2-225.9,67.6-227.8,227.5c0,3.1,1.2,6,3.5,8.1
	c2,1.9,4.7,2.9,7.4,2.9c0.3,0,0.7,0,1,0c120.5-11,216-106.3,226.9-226.6c0.3-3.1-0.8-6.1-2.9-8.4C495,261.9,492.1,260.8,489,260.7z
	 M226.2,0.1C106.1,11.4,11,106.7,0.1,226.7c-0.3,3.1,0.8,6.1,2.9,8.4c2.1,2.2,5,3.5,8,3.5c0,0,0.1,0,0.1,0
	c204.1-2.3,225.2-67.7,227.1-227.5c0-3.1-1.2-6-3.5-8.1C232.4,0.8,229.3-0.2,226.2,0.1z M11,260.7c-3.4-0.4-6.1,1.2-8.1,3.5
	c-2.1,2.3-3.1,5.3-2.9,8.4c10.9,120,106,215.3,226.2,226.6c0.3,0,0.7,0,1,0c2.7,0,5.4-1,7.4-2.9c2.3-2.1,3.5-5.1,3.5-8.1
	C236.3,328.3,215.2,263,11,260.7z"/>
</svg>
