<?xml version="1.0" encoding="utf-8"?>
<!-- Generator: Adobe Illustrator 26.0.2, SVG Export Plug-In . SVG Version: 6.00 Build 0)  -->
<svg version="1.1" id="Layer_1" xmlns="http://www.w3.org/2000/svg" xmlns:xlink="http://www.w3.org/1999/xlink" x="0px" y="0px"
	 viewBox="0 0 512 512" style="enable-background:new 0 0 512 512;" xml:space="preserve"> 
<path    d="M150.5,0C67.9,0,0,67.8,0,150.5v210.9C0,444.1,67.8,512,150.5,512h210.9c82.6,0,150.5-67.8,150.5-150.5V150.5
	C512,67.9,444.2,0,361.5,0H150.5z M150.5,46.5h210.9c57.5,0,104,46.5,104,104v210.9c0,57.5-46.5,104-104,104H150.5
	c-57.5,0-104-46.5-104-104V150.5C46.5,93,93,46.5,150.5,46.5z M393.5,97.5c-11.7,0-21.1,9.4-21.1,21.1s9.4,21.1,21.1,21.1
	c11.7,0,21.1-9.4,21.1-21.1S405.2,97.5,393.5,97.5z M256,116.4c-76.8,0-139.6,62.8-139.6,139.6S179.2,395.6,256,395.6
	S395.6,332.8,395.6,256S332.8,116.4,256,116.4z M256,162.9c51.7,0,93.1,41.4,93.1,93.1s-41.4,93.1-93.1,93.1s-93.1-41.4-93.1-93.1
	S204.3,162.9,256,162.9z"/>
</svg>
