<?xml version="1.0" encoding="utf-8"?>
<!-- Generator: Adobe Illustrator 26.0.2, SVG Export Plug-In . SVG Version: 6.00 Build 0)  -->
<svg version="1.1" id="Layer_1" xmlns="http://www.w3.org/2000/svg" xmlns:xlink="http://www.w3.org/1999/xlink" x="0px" y="0px"
	 viewBox="0 0 480 480" style="enable-background:new 0 0 480 480;" xml:space="preserve">
<path d="M443,19.8c-6.5,0.3-12.6,2.2-17.9,4.3c-5,2-24.1,10.2-54.1,23.1c-30.1,12.9-69.9,30-112.4,48.3
	c-85,36.5-180.5,77.7-229.5,98.7c-1.8,0.8-8.3,2.8-15.1,8.2C7.3,207.7,0,218.7,0,231c0,9.9,4.7,19.7,10.7,25.6
	c5.9,5.9,12.2,8.8,17.6,11c19.5,8,80.1,32.8,91.6,37.5c4,12.3,26,79.4,31,95.9c3.4,10.9,6.5,17.6,10.7,23c2.1,2.7,4.5,5.1,7.4,6.9
	c1.2,0.7,2.5,1.3,3.7,1.8l0.1,0c0.3,0.1,0.6,0.3,0.9,0.4c0.6,0.2,1,0.2,1.7,0.4c3,1,6.1,1.6,8.9,1.6c11.7,0,18.9-6.4,18.9-6.4
	l0.4-0.3l60.2-52.1l73,69.1c1,1.5,10.6,14.6,31.8,14.6c12.6,0,22.5-6.3,28.9-13c6.4-6.7,10.4-13.8,12.1-22.6v0
	c1.6-8.4,68.9-353.7,68.9-353.7l-0.1,0.5c2-9,2.5-17.4,0.3-25.6c-2.2-8.3-7.9-16.2-15-20.4C456.5,20.8,449.5,19.5,443,19.8z
	 M439.3,61.5c-0.1,0.6,0.1,0.3-0.1,1l0,0.2l0,0.2c0,0-66.4,340.9-68.9,353.9c0.2-1-0.6,1-1.5,2.1c-1.2-0.8-3.6-1.9-3.6-1.9l-0.4-0.4
	L265,322.4l-70.5,60.9l21-84c0,0,131.1-135.7,139-143.6c6.4-6.3,7.7-8.5,7.7-10.7c0-2.9-1.5-5-4.9-5c-3.1,0-7.2,3-9.4,4.4
	C319.2,162.7,193.4,236,137,268.8c-9-3.7-71.2-29.2-92.3-37.8c0.2-0.1,0.1,0,0.3-0.1c48.9-21.1,144.4-62.2,229.4-98.7
	c42.5-18.3,82.3-35.4,112.4-48.3C416.4,71.2,437,62.5,439.3,61.5z"/>
</svg>
